<svg xmlns="http://www.w3.org/2000/svg" viewBox="0 0 32 32" width="32" height="32">
  <defs>
    <!-- グリッチエフェクト用のフィルター -->
    <filter id="glitch" x="0%" y="0%" width="100%" height="100%">
      <feOffset in="SourceGraphic" dx="1" dy="0" result="red"/>
      <feOffset in="SourceGraphic" dx="-1" dy="0" result="blue"/>
      <feOffset in="SourceGraphic" dx="0" dy="1" result="green"/>
    </filter>
  </defs>
  
  <!-- 背景 -->
  <rect width="32" height="32" fill="#1f2937" rx="4"/>
  
  <!-- メイン画像（正方形） -->
  <rect x="6" y="6" width="20" height="20" fill="#e5e7eb" rx="2"/>
  
  <!-- グリッチエフェクト - 赤チャンネル -->
  <g opacity="0.8">
    <rect x="6" y="8" width="18" height="2" fill="#ef4444"/>
    <rect x="8" y="12" width="16" height="2" fill="#ef4444"/>
    <rect x="6" y="16" width="14" height="2" fill="#ef4444"/>
    <rect x="10" y="20" width="12" height="2" fill="#ef4444"/>
  </g>
  
  <!-- グリッチエフェクト - 青チャンネル -->
  <g opacity="0.8">
    <rect x="8" y="9" width="16" height="2" fill="#3b82f6"/>
    <rect x="6" y="13" width="18" height="2" fill="#3b82f6"/>
    <rect x="9" y="17" width="15" height="2" fill="#3b82f6"/>
    <rect x="7" y="21" width="13" height="2" fill="#3b82f6"/>
  </g>
  
  <!-- グリッチエフェクト - 緑チャンネル -->
  <g opacity="0.7">
    <rect x="7" y="10" width="17" height="1" fill="#10b981"/>
    <rect x="8" y="14" width="14" height="1" fill="#10b981"/>
    <rect x="6" y="18" width="16" height="1" fill="#10b981"/>
    <rect x="9" y="22" width="11" height="1" fill="#10b981"/>
  </g>
  
  <!-- ピクセル分離エフェクト -->
  <g opacity="0.6">
    <rect x="26" y="7" width="2" height="1" fill="#ef4444"/>
    <rect x="27" y="11" width="2" height="1" fill="#3b82f6"/>
    <rect x="4" y="15" width="1" height="2" fill="#10b981"/>
    <rect x="25" y="19" width="3" height="1" fill="#ef4444"/>
  </g>
  
  <!-- 走査線エフェクト -->
  <g opacity="0.3">
    <rect x="6" y="6" width="20" height="1" fill="#ffffff"/>
    <rect x="6" y="11" width="20" height="1" fill="#ffffff"/>
    <rect x="6" y="16" width="20" height="1" fill="#ffffff"/>
    <rect x="6" y="21" width="20" height="1" fill="#ffffff"/>
    <rect x="6" y="26" width="20" height="1" fill="#ffffff"/>
  </g>
</svg>